<svg width="32" height="32" viewBox="0 0 32 32" fill="none" xmlns="http://www.w3.org/2000/svg">
  <circle cx="16" cy="16" r="14" stroke="black" stroke-width="2"/>
  <text x="50%" y="55%" dominant-baseline="middle" text-anchor="middle" font-family="Arial, sans-serif" font-weight="bold" font-size="10" fill="black">SM</text>
  <circle cx="7" cy="16" r="2" fill="#3DDC84"/>
  <path d="M6 13L5 11M8 13L9 11" stroke="#3DDC84" stroke-width="1"/>
  <path d="M25 14.5C25 13 26 12 27 12.5C26.5 11 25 10.5 24 11C23 11.5 22.5 11 22 11C21.5 11 20 11.5 20 13.5C20 16.5 22 19 23 19C23.5 19 24 18.5 25 18.5C26 18.5 26.5 19 27 19C27.5 19 28.5 17 28.5 15.5C27 15.5 25 15.5 25 14.5Z" fill="black"/>
</svg>
